<svg width="559" height="243" viewBox="0 0 559 243" fill="none" xmlns="http://www.w3.org/2000/svg">
<g clip-path="url(#clip0_1_21)">
<g opacity="0.4" filter="url(#filter0_f_1_21)">
<circle cx="109" cy="133" r="81" fill="#2F82FF"/>
</g>
<g filter="url(#filter1_f_1_21)">
<circle cx="109" cy="112" r="60" fill="#2F82FF"/>
</g>
<path d="M64.1111 66.002L31 103.799L64.1111 115.529L83.4259 71.2154L64.1111 66.002Z" fill="#2F82FF"/>
<path d="M83.4259 71.2154L64.1111 115.529H146.889L127.574 71.2154H83.4259Z" fill="#2F82FF"/>
<path d="M64.1111 115.529L105.5 182L146.889 115.529H64.1111Z" fill="#2F82FF"/>
<path d="M31 103.799L105.5 182L64.1111 115.529L31 103.799Z" fill="#2F82FF"/>
<path d="M105.5 182L180 103.799L146.889 115.529L105.5 182Z" fill="#2F82FF"/>
<path d="M180 103.799L146.889 66.002L127.574 71.2154L146.889 115.529L180 103.799Z" fill="#2F82FF"/>
<path d="M64.1111 66.002L83.4259 71.2154H127.574L146.889 66.002L105.5 62L64.1111 66.002Z" fill="#2F82FF"/>
<path d="M64.1111 66.002L31 103.799L64.1111 115.529L83.4259 71.2154L64.1111 66.002Z" fill="url(#paint0_linear_1_21)" style="mix-blend-mode:soft-light"/>
<path d="M83.4259 71.2154L64.1111 115.529H146.889L127.574 71.2154H83.4259Z" fill="url(#paint1_linear_1_21)" style="mix-blend-mode:plus-lighter"/>
<path d="M64.1111 115.529L105.5 182L146.889 115.529H64.1111Z" fill="url(#paint2_linear_1_21)" style="mix-blend-mode:overlay"/>
<path d="M31 103.799L105.5 182L64.1111 115.529L31 103.799Z" fill="url(#paint3_linear_1_21)" style="mix-blend-mode:soft-light"/>
<path d="M105.5 182L180 103.799L146.889 115.529L105.5 182Z" fill="url(#paint4_linear_1_21)" style="mix-blend-mode:overlay"/>
<path d="M180 103.799L146.889 66.002L127.574 71.2154L146.889 115.529L180 103.799Z" fill="url(#paint5_linear_1_21)" style="mix-blend-mode:soft-light"/>
<path d="M64.1111 66.002L83.4259 71.2154H127.574L146.889 66.002L105.5 62L64.1111 66.002Z" fill="url(#paint6_linear_1_21)" style="mix-blend-mode:soft-light"/>
<g style="mix-blend-mode:plus-lighter" opacity="0.5">
<circle cx="171.728" cy="67.1633" r="4.16333" fill="white"/>
<circle cx="114.266" cy="46.3307" r="3.33066" fill="white"/>
<circle opacity="0.5" cx="34.3307" cy="57.3307" r="3.33066" fill="white"/>
<circle cx="79.2859" cy="33.2623" r="1.66533" fill="white"/>
<circle opacity="0.3" cx="129.254" cy="19.9319" r="1.66533" fill="white"/>
<circle opacity="0.5" cx="60.1418" cy="5.79287" r="0.832666" fill="white"/>
</g>
<g style="mix-blend-mode:plus-lighter">
<mask id="path-12-outside-1_1_21" maskUnits="userSpaceOnUse" x="206" y="88" width="247" height="45" fill="black">
<rect fill="white" x="206" y="88" width="247" height="45"/>
<path d="M207.994 122V90H221.213C223.609 90 225.676 90.4323 227.416 91.2969C229.166 92.151 230.515 93.3802 231.463 94.9844C232.411 96.5781 232.885 98.4687 232.885 100.656C232.885 102.875 232.4 104.76 231.432 106.312C230.463 107.854 229.088 109.031 227.307 109.844C225.525 110.646 223.416 111.047 220.979 111.047H212.619V104.953H219.541C220.708 104.953 221.682 104.802 222.463 104.5C223.255 104.187 223.854 103.719 224.26 103.094C224.666 102.458 224.869 101.646 224.869 100.656C224.869 99.6667 224.666 98.849 224.26 98.2031C223.854 97.5469 223.255 97.0573 222.463 96.7344C221.671 96.401 220.697 96.2344 219.541 96.2344H215.729V122H207.994ZM226.01 107.375L233.979 122H225.541L217.729 107.375H226.01ZM247.857 122.453C245.337 122.453 243.17 121.938 241.357 120.906C239.555 119.865 238.165 118.417 237.186 116.562C236.217 114.698 235.732 112.536 235.732 110.078C235.732 107.609 236.217 105.448 237.186 103.594C238.165 101.729 239.555 100.281 241.357 99.25C243.17 98.2083 245.337 97.6875 247.857 97.6875C250.378 97.6875 252.54 98.2083 254.342 99.25C256.154 100.281 257.545 101.729 258.514 103.594C259.493 105.448 259.982 107.609 259.982 110.078C259.982 112.536 259.493 114.698 258.514 116.562C257.545 118.417 256.154 119.865 254.342 120.906C252.54 121.938 250.378 122.453 247.857 122.453ZM247.904 116.687C248.821 116.687 249.597 116.406 250.232 115.844C250.868 115.281 251.352 114.5 251.686 113.5C252.029 112.5 252.201 111.344 252.201 110.031C252.201 108.698 252.029 107.531 251.686 106.531C251.352 105.531 250.868 104.75 250.232 104.187C249.597 103.625 248.821 103.344 247.904 103.344C246.956 103.344 246.154 103.625 245.498 104.187C244.852 104.75 244.357 105.531 244.014 106.531C243.68 107.531 243.514 108.698 243.514 110.031C243.514 111.344 243.68 112.5 244.014 113.5C244.357 114.5 244.852 115.281 245.498 115.844C246.154 116.406 246.956 116.687 247.904 116.687ZM267.795 131C266.878 131 266.014 130.927 265.201 130.781C264.389 130.646 263.691 130.464 263.107 130.234L264.795 124.688C265.545 124.938 266.222 125.083 266.826 125.125C267.441 125.167 267.967 125.068 268.404 124.828C268.852 124.599 269.196 124.188 269.436 123.594L269.732 122.875L261.201 98H269.201L273.623 115.125H273.873L278.357 98H286.404L277.357 124.297C276.92 125.609 276.3 126.766 275.498 127.766C274.706 128.776 273.68 129.568 272.42 130.141C271.17 130.714 269.628 131 267.795 131ZM295.455 122.406C293.924 122.406 292.564 122.151 291.377 121.641C290.2 121.12 289.268 120.339 288.58 119.297C287.903 118.245 287.564 116.927 287.564 115.344C287.564 114.01 287.799 112.885 288.268 111.969C288.736 111.052 289.382 110.307 290.205 109.734C291.028 109.161 291.976 108.729 293.049 108.437C294.122 108.135 295.268 107.932 296.486 107.828C297.851 107.703 298.95 107.573 299.783 107.438C300.617 107.292 301.221 107.089 301.596 106.828C301.981 106.557 302.174 106.177 302.174 105.687V105.609C302.174 104.807 301.898 104.187 301.346 103.75C300.794 103.312 300.049 103.094 299.111 103.094C298.101 103.094 297.288 103.312 296.674 103.75C296.059 104.187 295.669 104.792 295.502 105.562L288.455 105.312C288.663 103.854 289.2 102.552 290.064 101.406C290.939 100.25 292.137 99.3438 293.658 98.6875C295.189 98.0208 297.028 97.6875 299.174 97.6875C300.705 97.6875 302.117 97.8698 303.408 98.2344C304.7 98.5885 305.825 99.1094 306.783 99.7969C307.742 100.474 308.481 101.307 309.002 102.297C309.533 103.286 309.799 104.417 309.799 105.687V122H302.611V118.656H302.424C301.997 119.469 301.45 120.156 300.783 120.719C300.127 121.281 299.351 121.703 298.455 121.984C297.57 122.266 296.57 122.406 295.455 122.406ZM297.814 117.406C298.637 117.406 299.377 117.24 300.033 116.906C300.7 116.573 301.231 116.115 301.627 115.531C302.023 114.937 302.221 114.25 302.221 113.469V111.187C302.002 111.302 301.736 111.406 301.424 111.5C301.122 111.594 300.788 111.682 300.424 111.766C300.059 111.849 299.684 111.922 299.299 111.984C298.913 112.047 298.544 112.104 298.189 112.156C297.471 112.271 296.856 112.448 296.346 112.687C295.846 112.927 295.46 113.24 295.189 113.625C294.929 114 294.799 114.448 294.799 114.969C294.799 115.76 295.08 116.365 295.643 116.781C296.215 117.198 296.939 117.406 297.814 117.406ZM322.111 90V122H314.471V90H322.111ZM344.271 99.5937C344.167 98.4479 343.704 97.5573 342.881 96.9219C342.068 96.276 340.907 95.9531 339.396 95.9531C338.396 95.9531 337.563 96.0833 336.896 96.3437C336.23 96.6042 335.73 96.9635 335.396 97.4219C335.063 97.8698 334.891 98.3854 334.881 98.9688C334.86 99.4479 334.954 99.8698 335.162 100.234C335.381 100.599 335.693 100.922 336.1 101.203C336.516 101.474 337.016 101.714 337.6 101.922C338.183 102.13 338.839 102.312 339.568 102.469L342.318 103.094C343.902 103.438 345.298 103.896 346.506 104.469C347.725 105.042 348.745 105.724 349.568 106.516C350.402 107.307 351.032 108.219 351.459 109.25C351.886 110.281 352.105 111.437 352.115 112.719C352.105 114.74 351.594 116.474 350.584 117.922C349.574 119.37 348.12 120.479 346.225 121.25C344.339 122.021 342.063 122.406 339.396 122.406C336.719 122.406 334.386 122.005 332.396 121.203C330.407 120.401 328.86 119.182 327.756 117.547C326.652 115.911 326.084 113.844 326.053 111.344H333.459C333.521 112.375 333.798 113.234 334.287 113.922C334.777 114.609 335.449 115.13 336.303 115.484C337.167 115.839 338.167 116.016 339.303 116.016C340.344 116.016 341.23 115.875 341.959 115.594C342.699 115.313 343.266 114.922 343.662 114.422C344.058 113.922 344.261 113.349 344.271 112.703C344.261 112.099 344.074 111.583 343.709 111.156C343.344 110.719 342.782 110.344 342.021 110.031C341.271 109.708 340.313 109.411 339.146 109.141L335.803 108.359C333.032 107.724 330.85 106.698 329.256 105.281C327.662 103.854 326.87 101.927 326.881 99.5C326.87 97.5208 327.402 95.7865 328.475 94.2969C329.548 92.8073 331.032 91.6458 332.928 90.8125C334.824 89.9792 336.985 89.5625 339.412 89.5625C341.891 89.5625 344.042 89.9844 345.865 90.8281C347.699 91.6615 349.12 92.8333 350.131 94.3438C351.141 95.8542 351.657 97.6042 351.678 99.5937H344.271ZM369.568 98V103.625H354.428V98H369.568ZM357.6 92.25H365.24V114.453C365.24 114.922 365.313 115.302 365.459 115.594C365.615 115.875 365.839 116.078 366.131 116.203C366.423 116.318 366.771 116.375 367.178 116.375C367.469 116.375 367.777 116.349 368.1 116.297C368.433 116.234 368.683 116.182 368.85 116.141L370.006 121.656C369.641 121.76 369.126 121.891 368.459 122.047C367.803 122.203 367.016 122.302 366.1 122.344C364.308 122.427 362.771 122.219 361.49 121.719C360.219 121.208 359.245 120.417 358.568 119.344C357.902 118.271 357.579 116.922 357.6 115.297V92.25ZM384.412 122.453C381.891 122.453 379.725 121.938 377.912 120.906C376.11 119.865 374.719 118.417 373.74 116.562C372.771 114.698 372.287 112.536 372.287 110.078C372.287 107.609 372.771 105.448 373.74 103.594C374.719 101.729 376.11 100.281 377.912 99.25C379.725 98.2083 381.891 97.6875 384.412 97.6875C386.933 97.6875 389.094 98.2083 390.896 99.25C392.709 100.281 394.1 101.729 395.068 103.594C396.048 105.448 396.537 107.609 396.537 110.078C396.537 112.536 396.048 114.698 395.068 116.562C394.1 118.417 392.709 119.865 390.896 120.906C389.094 121.938 386.933 122.453 384.412 122.453ZM384.459 116.687C385.376 116.687 386.152 116.406 386.787 115.844C387.423 115.281 387.907 114.5 388.24 113.5C388.584 112.5 388.756 111.344 388.756 110.031C388.756 108.698 388.584 107.531 388.24 106.531C387.907 105.531 387.423 104.75 386.787 104.187C386.152 103.625 385.376 103.344 384.459 103.344C383.511 103.344 382.709 103.625 382.053 104.187C381.407 104.75 380.912 105.531 380.568 106.531C380.235 107.531 380.068 108.698 380.068 110.031C380.068 111.344 380.235 112.5 380.568 113.5C380.912 114.5 381.407 115.281 382.053 115.844C382.709 116.406 383.511 116.687 384.459 116.687ZM408.092 108.312V122H400.451V98H407.717V102.406H407.982C408.514 100.937 409.42 99.7865 410.701 98.9531C411.982 98.1094 413.508 97.6875 415.279 97.6875C416.967 97.6875 418.43 98.0677 419.67 98.8281C420.92 99.5781 421.889 100.63 422.576 101.984C423.274 103.328 423.618 104.901 423.607 106.703V122H415.967V108.203C415.977 106.87 415.639 105.828 414.951 105.078C414.274 104.328 413.331 103.953 412.123 103.953C411.321 103.953 410.613 104.13 409.998 104.484C409.394 104.828 408.925 105.323 408.592 105.969C408.269 106.615 408.102 107.396 408.092 108.312ZM439.557 122.453C437.046 122.453 434.88 121.958 433.057 120.969C431.244 119.969 429.848 118.547 428.869 116.703C427.9 114.849 427.416 112.646 427.416 110.094C427.416 107.615 427.906 105.448 428.885 103.594C429.864 101.729 431.244 100.281 433.025 99.25C434.807 98.2083 436.906 97.6875 439.322 97.6875C441.031 97.6875 442.593 97.9531 444.01 98.4844C445.426 99.0156 446.65 99.8021 447.682 100.844C448.713 101.885 449.515 103.172 450.088 104.703C450.661 106.224 450.947 107.969 450.947 109.937V111.844H430.088V107.406H443.838C443.827 106.594 443.635 105.87 443.26 105.234C442.885 104.599 442.369 104.104 441.713 103.75C441.067 103.385 440.322 103.203 439.479 103.203C438.624 103.203 437.859 103.396 437.182 103.781C436.505 104.156 435.968 104.672 435.572 105.328C435.176 105.974 434.968 106.708 434.947 107.531V112.047C434.947 113.026 435.14 113.885 435.525 114.625C435.911 115.354 436.458 115.922 437.166 116.328C437.874 116.734 438.718 116.937 439.697 116.937C440.374 116.937 440.989 116.844 441.541 116.656C442.093 116.469 442.567 116.193 442.963 115.828C443.359 115.464 443.656 115.016 443.854 114.484L450.869 114.687C450.577 116.26 449.937 117.63 448.947 118.797C447.968 119.953 446.682 120.854 445.088 121.5C443.494 122.135 441.65 122.453 439.557 122.453Z"/>
</mask>
<path d="M207.994 122V90H221.213C223.609 90 225.676 90.4323 227.416 91.2969C229.166 92.151 230.515 93.3802 231.463 94.9844C232.411 96.5781 232.885 98.4687 232.885 100.656C232.885 102.875 232.4 104.76 231.432 106.312C230.463 107.854 229.088 109.031 227.307 109.844C225.525 110.646 223.416 111.047 220.979 111.047H212.619V104.953H219.541C220.708 104.953 221.682 104.802 222.463 104.5C223.255 104.187 223.854 103.719 224.26 103.094C224.666 102.458 224.869 101.646 224.869 100.656C224.869 99.6667 224.666 98.849 224.26 98.2031C223.854 97.5469 223.255 97.0573 222.463 96.7344C221.671 96.401 220.697 96.2344 219.541 96.2344H215.729V122H207.994ZM226.01 107.375L233.979 122H225.541L217.729 107.375H226.01ZM247.857 122.453C245.337 122.453 243.17 121.938 241.357 120.906C239.555 119.865 238.165 118.417 237.186 116.562C236.217 114.698 235.732 112.536 235.732 110.078C235.732 107.609 236.217 105.448 237.186 103.594C238.165 101.729 239.555 100.281 241.357 99.25C243.17 98.2083 245.337 97.6875 247.857 97.6875C250.378 97.6875 252.54 98.2083 254.342 99.25C256.154 100.281 257.545 101.729 258.514 103.594C259.493 105.448 259.982 107.609 259.982 110.078C259.982 112.536 259.493 114.698 258.514 116.562C257.545 118.417 256.154 119.865 254.342 120.906C252.54 121.938 250.378 122.453 247.857 122.453ZM247.904 116.687C248.821 116.687 249.597 116.406 250.232 115.844C250.868 115.281 251.352 114.5 251.686 113.5C252.029 112.5 252.201 111.344 252.201 110.031C252.201 108.698 252.029 107.531 251.686 106.531C251.352 105.531 250.868 104.75 250.232 104.187C249.597 103.625 248.821 103.344 247.904 103.344C246.956 103.344 246.154 103.625 245.498 104.187C244.852 104.75 244.357 105.531 244.014 106.531C243.68 107.531 243.514 108.698 243.514 110.031C243.514 111.344 243.68 112.5 244.014 113.5C244.357 114.5 244.852 115.281 245.498 115.844C246.154 116.406 246.956 116.687 247.904 116.687ZM267.795 131C266.878 131 266.014 130.927 265.201 130.781C264.389 130.646 263.691 130.464 263.107 130.234L264.795 124.688C265.545 124.938 266.222 125.083 266.826 125.125C267.441 125.167 267.967 125.068 268.404 124.828C268.852 124.599 269.196 124.188 269.436 123.594L269.732 122.875L261.201 98H269.201L273.623 115.125H273.873L278.357 98H286.404L277.357 124.297C276.92 125.609 276.3 126.766 275.498 127.766C274.706 128.776 273.68 129.568 272.42 130.141C271.17 130.714 269.628 131 267.795 131ZM295.455 122.406C293.924 122.406 292.564 122.151 291.377 121.641C290.2 121.12 289.268 120.339 288.58 119.297C287.903 118.245 287.564 116.927 287.564 115.344C287.564 114.01 287.799 112.885 288.268 111.969C288.736 111.052 289.382 110.307 290.205 109.734C291.028 109.161 291.976 108.729 293.049 108.437C294.122 108.135 295.268 107.932 296.486 107.828C297.851 107.703 298.95 107.573 299.783 107.438C300.617 107.292 301.221 107.089 301.596 106.828C301.981 106.557 302.174 106.177 302.174 105.687V105.609C302.174 104.807 301.898 104.187 301.346 103.75C300.794 103.312 300.049 103.094 299.111 103.094C298.101 103.094 297.288 103.312 296.674 103.75C296.059 104.187 295.669 104.792 295.502 105.562L288.455 105.312C288.663 103.854 289.2 102.552 290.064 101.406C290.939 100.25 292.137 99.3438 293.658 98.6875C295.189 98.0208 297.028 97.6875 299.174 97.6875C300.705 97.6875 302.117 97.8698 303.408 98.2344C304.7 98.5885 305.825 99.1094 306.783 99.7969C307.742 100.474 308.481 101.307 309.002 102.297C309.533 103.286 309.799 104.417 309.799 105.687V122H302.611V118.656H302.424C301.997 119.469 301.45 120.156 300.783 120.719C300.127 121.281 299.351 121.703 298.455 121.984C297.57 122.266 296.57 122.406 295.455 122.406ZM297.814 117.406C298.637 117.406 299.377 117.24 300.033 116.906C300.7 116.573 301.231 116.115 301.627 115.531C302.023 114.937 302.221 114.25 302.221 113.469V111.187C302.002 111.302 301.736 111.406 301.424 111.5C301.122 111.594 300.788 111.682 300.424 111.766C300.059 111.849 299.684 111.922 299.299 111.984C298.913 112.047 298.544 112.104 298.189 112.156C297.471 112.271 296.856 112.448 296.346 112.687C295.846 112.927 295.46 113.24 295.189 113.625C294.929 114 294.799 114.448 294.799 114.969C294.799 115.76 295.08 116.365 295.643 116.781C296.215 117.198 296.939 117.406 297.814 117.406ZM322.111 90V122H314.471V90H322.111ZM344.271 99.5937C344.167 98.4479 343.704 97.5573 342.881 96.9219C342.068 96.276 340.907 95.9531 339.396 95.9531C338.396 95.9531 337.563 96.0833 336.896 96.3437C336.23 96.6042 335.73 96.9635 335.396 97.4219C335.063 97.8698 334.891 98.3854 334.881 98.9688C334.86 99.4479 334.954 99.8698 335.162 100.234C335.381 100.599 335.693 100.922 336.1 101.203C336.516 101.474 337.016 101.714 337.6 101.922C338.183 102.13 338.839 102.312 339.568 102.469L342.318 103.094C343.902 103.438 345.298 103.896 346.506 104.469C347.725 105.042 348.745 105.724 349.568 106.516C350.402 107.307 351.032 108.219 351.459 109.25C351.886 110.281 352.105 111.437 352.115 112.719C352.105 114.74 351.594 116.474 350.584 117.922C349.574 119.37 348.12 120.479 346.225 121.25C344.339 122.021 342.063 122.406 339.396 122.406C336.719 122.406 334.386 122.005 332.396 121.203C330.407 120.401 328.86 119.182 327.756 117.547C326.652 115.911 326.084 113.844 326.053 111.344H333.459C333.521 112.375 333.798 113.234 334.287 113.922C334.777 114.609 335.449 115.13 336.303 115.484C337.167 115.839 338.167 116.016 339.303 116.016C340.344 116.016 341.23 115.875 341.959 115.594C342.699 115.313 343.266 114.922 343.662 114.422C344.058 113.922 344.261 113.349 344.271 112.703C344.261 112.099 344.074 111.583 343.709 111.156C343.344 110.719 342.782 110.344 342.021 110.031C341.271 109.708 340.313 109.411 339.146 109.141L335.803 108.359C333.032 107.724 330.85 106.698 329.256 105.281C327.662 103.854 326.87 101.927 326.881 99.5C326.87 97.5208 327.402 95.7865 328.475 94.2969C329.548 92.8073 331.032 91.6458 332.928 90.8125C334.824 89.9792 336.985 89.5625 339.412 89.5625C341.891 89.5625 344.042 89.9844 345.865 90.8281C347.699 91.6615 349.12 92.8333 350.131 94.3438C351.141 95.8542 351.657 97.6042 351.678 99.5937H344.271ZM369.568 98V103.625H354.428V98H369.568ZM357.6 92.25H365.24V114.453C365.24 114.922 365.313 115.302 365.459 115.594C365.615 115.875 365.839 116.078 366.131 116.203C366.423 116.318 366.771 116.375 367.178 116.375C367.469 116.375 367.777 116.349 368.1 116.297C368.433 116.234 368.683 116.182 368.85 116.141L370.006 121.656C369.641 121.76 369.126 121.891 368.459 122.047C367.803 122.203 367.016 122.302 366.1 122.344C364.308 122.427 362.771 122.219 361.49 121.719C360.219 121.208 359.245 120.417 358.568 119.344C357.902 118.271 357.579 116.922 357.6 115.297V92.25ZM384.412 122.453C381.891 122.453 379.725 121.938 377.912 120.906C376.11 119.865 374.719 118.417 373.74 116.562C372.771 114.698 372.287 112.536 372.287 110.078C372.287 107.609 372.771 105.448 373.74 103.594C374.719 101.729 376.11 100.281 377.912 99.25C379.725 98.2083 381.891 97.6875 384.412 97.6875C386.933 97.6875 389.094 98.2083 390.896 99.25C392.709 100.281 394.1 101.729 395.068 103.594C396.048 105.448 396.537 107.609 396.537 110.078C396.537 112.536 396.048 114.698 395.068 116.562C394.1 118.417 392.709 119.865 390.896 120.906C389.094 121.938 386.933 122.453 384.412 122.453ZM384.459 116.687C385.376 116.687 386.152 116.406 386.787 115.844C387.423 115.281 387.907 114.5 388.24 113.5C388.584 112.5 388.756 111.344 388.756 110.031C388.756 108.698 388.584 107.531 388.24 106.531C387.907 105.531 387.423 104.75 386.787 104.187C386.152 103.625 385.376 103.344 384.459 103.344C383.511 103.344 382.709 103.625 382.053 104.187C381.407 104.75 380.912 105.531 380.568 106.531C380.235 107.531 380.068 108.698 380.068 110.031C380.068 111.344 380.235 112.5 380.568 113.5C380.912 114.5 381.407 115.281 382.053 115.844C382.709 116.406 383.511 116.687 384.459 116.687ZM408.092 108.312V122H400.451V98H407.717V102.406H407.982C408.514 100.937 409.42 99.7865 410.701 98.9531C411.982 98.1094 413.508 97.6875 415.279 97.6875C416.967 97.6875 418.43 98.0677 419.67 98.8281C420.92 99.5781 421.889 100.63 422.576 101.984C423.274 103.328 423.618 104.901 423.607 106.703V122H415.967V108.203C415.977 106.87 415.639 105.828 414.951 105.078C414.274 104.328 413.331 103.953 412.123 103.953C411.321 103.953 410.613 104.13 409.998 104.484C409.394 104.828 408.925 105.323 408.592 105.969C408.269 106.615 408.102 107.396 408.092 108.312ZM439.557 122.453C437.046 122.453 434.88 121.958 433.057 120.969C431.244 119.969 429.848 118.547 428.869 116.703C427.9 114.849 427.416 112.646 427.416 110.094C427.416 107.615 427.906 105.448 428.885 103.594C429.864 101.729 431.244 100.281 433.025 99.25C434.807 98.2083 436.906 97.6875 439.322 97.6875C441.031 97.6875 442.593 97.9531 444.01 98.4844C445.426 99.0156 446.65 99.8021 447.682 100.844C448.713 101.885 449.515 103.172 450.088 104.703C450.661 106.224 450.947 107.969 450.947 109.937V111.844H430.088V107.406H443.838C443.827 106.594 443.635 105.87 443.26 105.234C442.885 104.599 442.369 104.104 441.713 103.75C441.067 103.385 440.322 103.203 439.479 103.203C438.624 103.203 437.859 103.396 437.182 103.781C436.505 104.156 435.968 104.672 435.572 105.328C435.176 105.974 434.968 106.708 434.947 107.531V112.047C434.947 113.026 435.14 113.885 435.525 114.625C435.911 115.354 436.458 115.922 437.166 116.328C437.874 116.734 438.718 116.937 439.697 116.937C440.374 116.937 440.989 116.844 441.541 116.656C442.093 116.469 442.567 116.193 442.963 115.828C443.359 115.464 443.656 115.016 443.854 114.484L450.869 114.687C450.577 116.26 449.937 117.63 448.947 118.797C447.968 119.953 446.682 120.854 445.088 121.5C443.494 122.135 441.65 122.453 439.557 122.453Z" fill="url(#paint7_linear_1_21)"/>
<path d="M207.994 122H206.661V123.333H207.994V122ZM207.994 90V88.6667H206.661V90H207.994ZM227.416 91.2969L226.823 92.4909L226.831 92.4951L227.416 91.2969ZM231.463 94.9844L230.315 95.6627L230.317 95.666L231.463 94.9844ZM231.432 106.312L232.561 107.022L232.563 107.018L231.432 106.312ZM227.307 109.844L227.854 111.06L227.86 111.057L227.307 109.844ZM212.619 111.047H211.286V112.38H212.619V111.047ZM212.619 104.953V103.62H211.286V104.953H212.619ZM222.463 104.5L222.944 105.744L222.952 105.74L222.463 104.5ZM224.26 103.094L225.378 103.82L225.383 103.812L224.26 103.094ZM224.26 98.2031L223.126 98.9049L223.131 98.9131L224.26 98.2031ZM222.463 96.7344L221.945 97.9632L221.952 97.9661L221.959 97.969L222.463 96.7344ZM215.729 96.2344V94.901H214.395V96.2344H215.729ZM215.729 122V123.333H217.062V122H215.729ZM226.01 107.375L227.181 106.737L226.802 106.042H226.01V107.375ZM233.979 122V123.333H236.223L235.149 121.362L233.979 122ZM225.541 122L224.365 122.628L224.742 123.333H225.541V122ZM217.729 107.375V106.042H215.505L216.552 108.003L217.729 107.375ZM209.327 122V90H206.661V122H209.327ZM207.994 91.3333H221.213V88.6667H207.994V91.3333ZM221.213 91.3333C223.45 91.3333 225.305 91.7368 226.823 92.4909L228.009 90.1029C226.047 89.1278 223.768 88.6667 221.213 88.6667V91.3333ZM226.831 92.4951C228.358 93.2402 229.506 94.2936 230.315 95.6627L232.611 94.3061C231.524 92.4668 229.974 91.0618 228.001 90.0987L226.831 92.4951ZM230.317 95.666C231.122 97.0191 231.551 98.6652 231.551 100.656H234.218C234.218 98.2723 233.7 96.1372 232.609 94.3028L230.317 95.666ZM231.551 100.656C231.551 102.679 231.111 104.307 230.301 105.607L232.563 107.018C233.689 105.214 234.218 103.071 234.218 100.656H231.551ZM230.303 105.603C229.483 106.908 228.316 107.918 226.753 108.631L227.86 111.057C229.86 110.145 231.443 108.801 232.561 107.022L230.303 105.603ZM226.759 108.628C225.187 109.336 223.273 109.714 220.979 109.714V112.38C223.559 112.38 225.864 111.956 227.854 111.06L226.759 108.628ZM220.979 109.714H212.619V112.38H220.979V109.714ZM213.952 111.047V104.953H211.286V111.047H213.952ZM212.619 106.286H219.541V103.62H212.619V106.286ZM219.541 106.286C220.812 106.286 221.962 106.123 222.944 105.744L221.982 103.256C221.402 103.481 220.603 103.62 219.541 103.62V106.286ZM222.952 105.74C223.964 105.341 224.8 104.71 225.378 103.82L223.142 102.367C222.907 102.728 222.545 103.034 221.973 103.26L222.952 105.74ZM225.383 103.812C225.963 102.905 226.202 101.822 226.202 100.656H223.536C223.536 101.469 223.369 102.012 223.136 102.376L225.383 103.812ZM226.202 100.656C226.202 99.4889 225.963 98.4062 225.388 97.4932L223.131 98.9131C223.369 99.2917 223.536 99.8445 223.536 100.656H226.202ZM225.393 97.5013C224.823 96.5796 223.99 95.9172 222.966 95.4998L221.959 97.969C222.519 98.1974 222.884 98.5142 223.126 98.9049L225.393 97.5013ZM222.98 95.5055C221.979 95.0838 220.817 94.901 219.541 94.901V97.5677C220.578 97.5677 221.364 97.7183 221.945 97.9632L222.98 95.5055ZM219.541 94.901H215.729V97.5677H219.541V94.901ZM214.395 96.2344V122H217.062V96.2344H214.395ZM215.729 120.667H207.994V123.333H215.729V120.667ZM224.839 108.013L232.808 122.638L235.149 121.362L227.181 106.737L224.839 108.013ZM233.979 120.667H225.541V123.333H233.979V120.667ZM226.717 121.372L218.905 106.747L216.552 108.003L224.365 122.628L226.717 121.372ZM217.729 108.708H226.01V106.042H217.729V108.708ZM241.357 120.906L240.69 122.061L240.698 122.065L241.357 120.906ZM237.186 116.562L236.002 117.177L236.007 117.185L237.186 116.562ZM237.186 103.594L236.005 102.974L236.004 102.976L237.186 103.594ZM241.357 99.25L242.02 100.407L242.022 100.406L241.357 99.25ZM254.342 99.25L253.675 100.404L253.682 100.409L254.342 99.25ZM258.514 103.594L257.33 104.208L257.335 104.216L258.514 103.594ZM258.514 116.562L257.333 115.943L257.332 115.945L258.514 116.562ZM254.342 120.906L255.004 122.063L255.006 122.062L254.342 120.906ZM250.232 115.844L249.349 114.845L249.349 114.845L250.232 115.844ZM251.686 113.5L250.425 113.067L250.421 113.078L251.686 113.5ZM251.686 106.531L250.421 106.953L250.425 106.965L251.686 106.531ZM250.232 104.187L251.116 103.189L251.116 103.189L250.232 104.187ZM245.498 104.187L244.63 103.175L244.622 103.182L245.498 104.187ZM244.014 106.531L242.753 106.098L242.749 106.11L244.014 106.531ZM244.014 113.5L242.749 113.922L242.753 113.933L244.014 113.5ZM245.498 115.844L244.622 116.849L244.63 116.856L245.498 115.844ZM247.857 121.12C245.52 121.12 243.59 120.643 242.017 119.747L240.698 122.065C242.75 123.232 245.154 123.786 247.857 123.786V121.12ZM242.025 119.752C240.442 118.837 239.227 117.574 238.365 115.94L236.007 117.185C237.102 119.259 238.669 120.892 240.69 122.061L242.025 119.752ZM238.369 115.948C237.514 114.303 237.066 112.359 237.066 110.078H234.399C234.399 112.714 234.919 115.093 236.002 117.177L238.369 115.948ZM237.066 110.078C237.066 107.786 237.515 105.843 238.367 104.211L236.004 102.976C234.919 105.053 234.399 107.433 234.399 110.078H237.066ZM238.366 104.214C239.229 102.57 240.441 101.31 242.02 100.407L240.695 98.0928C238.669 99.252 237.101 100.888 236.005 102.974L238.366 104.214ZM242.022 100.406C243.594 99.5023 245.522 99.0208 247.857 99.0208V96.3542C245.151 96.3542 242.746 96.9144 240.693 98.094L242.022 100.406ZM247.857 99.0208C250.193 99.0208 252.114 99.5024 253.675 100.404L255.009 98.0956C252.965 96.9143 250.563 96.3542 247.857 96.3542V99.0208ZM253.682 100.409C255.27 101.312 256.479 102.57 257.331 104.208L259.697 102.979C258.611 100.888 257.039 99.2505 255.001 98.0911L253.682 100.409ZM257.335 104.216C258.196 105.847 258.649 107.788 258.649 110.078H261.316C261.316 107.431 260.79 105.049 259.693 102.971L257.335 104.216ZM258.649 110.078C258.649 112.357 258.196 114.299 257.333 115.943L259.694 117.182C260.789 115.097 261.316 112.716 261.316 110.078H258.649ZM257.332 115.945C256.481 117.574 255.27 118.835 253.677 119.75L255.006 122.062C257.039 120.894 258.609 119.259 259.695 117.18L257.332 115.945ZM253.68 119.749C252.118 120.643 250.196 121.12 247.857 121.12V123.786C250.561 123.786 252.961 123.232 255.004 122.063L253.68 119.749ZM247.904 118.021C249.118 118.021 250.217 117.638 251.116 116.842L249.349 114.845C248.977 115.174 248.524 115.354 247.904 115.354V118.021ZM251.116 116.842C251.965 116.091 252.561 115.091 252.95 113.922L250.421 113.078C250.144 113.909 249.771 114.472 249.349 114.845L251.116 116.842ZM252.946 113.933C253.348 112.765 253.535 111.457 253.535 110.031H250.868C250.868 111.23 250.71 112.235 250.425 113.067L252.946 113.933ZM253.535 110.031C253.535 108.587 253.349 107.268 252.946 106.098L250.425 106.965C250.71 107.794 250.868 108.809 250.868 110.031H253.535ZM252.95 106.11C252.561 104.941 251.965 103.94 251.116 103.189L249.349 105.186C249.771 105.56 250.144 106.122 250.421 106.953L252.95 106.11ZM251.116 103.189C250.217 102.393 249.118 102.01 247.904 102.01V104.677C248.524 104.677 248.977 104.857 249.349 105.186L251.116 103.189ZM247.904 102.01C246.671 102.01 245.552 102.385 244.63 103.175L246.366 105.2C246.756 104.865 247.242 104.677 247.904 104.677V102.01ZM244.622 103.182C243.763 103.93 243.155 104.928 242.753 106.098L245.275 106.965C245.56 106.134 245.941 105.57 246.374 105.193L244.622 103.182ZM242.749 106.11C242.36 107.276 242.18 108.591 242.18 110.031H244.847C244.847 108.805 245.001 107.786 245.279 106.953L242.749 106.11ZM242.18 110.031C242.18 111.453 242.361 112.757 242.749 113.922L245.279 113.078C245 112.243 244.847 111.234 244.847 110.031H242.18ZM242.753 113.933C243.155 115.103 243.763 116.101 244.622 116.849L246.374 114.838C245.941 114.462 245.56 113.897 245.275 113.067L242.753 113.933ZM244.63 116.856C245.552 117.646 246.671 118.021 247.904 118.021V115.354C247.242 115.354 246.756 115.166 246.366 114.831L244.63 116.856ZM265.201 130.781L265.437 129.469L265.429 129.467L265.42 129.466L265.201 130.781ZM263.107 130.234L261.832 129.846L261.473 131.025L262.62 131.475L263.107 130.234ZM264.795 124.688L265.217 123.423L263.918 122.99L263.519 124.299L264.795 124.688ZM266.826 125.125L266.734 126.455L266.736 126.455L266.826 125.125ZM268.404 124.828L267.797 123.641L267.78 123.65L267.764 123.659L268.404 124.828ZM269.436 123.594L268.203 123.085L268.199 123.095L269.436 123.594ZM269.732 122.875L270.965 123.384L271.157 122.919L270.994 122.442L269.732 122.875ZM261.201 98V96.6667H259.334L259.94 98.4326L261.201 98ZM269.201 98L270.492 97.6667L270.234 96.6667H269.201V98ZM273.623 115.125L272.332 115.458L272.59 116.458H273.623V115.125ZM273.873 115.125V116.458H274.902L275.163 115.463L273.873 115.125ZM278.357 98V96.6667H277.328L277.068 97.6622L278.357 98ZM286.404 98L287.665 98.4338L288.273 96.6667H286.404V98ZM277.357 124.297L276.097 123.863L276.093 123.875L277.357 124.297ZM275.498 127.766L274.458 126.931L274.453 126.937L274.448 126.943L275.498 127.766ZM272.42 130.141L271.868 128.927L271.864 128.929L272.42 130.141ZM267.795 129.667C266.949 129.667 266.164 129.599 265.437 129.469L264.966 132.094C265.864 132.255 266.808 132.333 267.795 132.333V129.667ZM265.42 129.466C264.673 129.341 264.07 129.18 263.595 128.993L262.62 131.475C263.312 131.747 264.105 131.95 264.982 132.096L265.42 129.466ZM264.383 130.622L266.071 125.076L263.519 124.299L261.832 129.846L264.383 130.622ZM264.373 125.952C265.2 126.228 265.99 126.404 266.734 126.455L266.918 123.795C266.454 123.763 265.89 123.647 265.217 123.423L264.373 125.952ZM266.736 126.455C267.545 126.51 268.337 126.385 269.045 125.998L267.764 123.659C267.597 123.75 267.337 123.823 266.916 123.795L266.736 126.455ZM269.012 126.015C269.816 125.603 270.346 124.901 270.672 124.093L268.199 123.095C268.046 123.474 267.888 123.594 267.797 123.641L269.012 126.015ZM270.668 124.103L270.965 123.384L268.5 122.366L268.203 123.085L270.668 124.103ZM270.994 122.442L262.462 97.5674L259.94 98.4326L268.471 123.308L270.994 122.442ZM261.201 99.3333H269.201V96.6667H261.201V99.3333ZM267.91 98.3333L272.332 115.458L274.914 114.792L270.492 97.6667L267.91 98.3333ZM273.623 116.458H273.873V113.792H273.623V116.458ZM275.163 115.463L279.647 98.3378L277.068 97.6622L272.583 114.787L275.163 115.463ZM278.357 99.3333H286.404V96.6667H278.357V99.3333ZM285.143 97.5662L276.097 123.863L278.618 124.731L287.665 98.4338L285.143 97.5662ZM276.093 123.875C275.701 125.05 275.154 126.064 274.458 126.931L276.538 128.6C277.447 127.467 278.139 126.169 278.622 124.719L276.093 123.875ZM274.448 126.943C273.799 127.772 272.949 128.435 271.868 128.927L272.972 131.354C274.411 130.7 275.614 129.78 276.548 128.588L274.448 126.943ZM271.864 128.929C270.837 129.4 269.497 129.667 267.795 129.667V132.333C269.759 132.333 271.503 132.027 272.975 131.353L271.864 128.929ZM291.377 121.641L290.837 122.86L290.844 122.863L290.85 122.866L291.377 121.641ZM288.58 119.297L287.459 120.018L287.463 120.025L287.467 120.031L288.58 119.297ZM288.268 111.969L287.08 111.362L287.08 111.362L288.268 111.969ZM290.205 109.734L290.967 110.829L290.967 110.829L290.205 109.734ZM293.049 108.437L293.399 109.724L293.41 109.721L293.049 108.437ZM296.486 107.828L296.6 109.157L296.608 109.156L296.486 107.828ZM299.783 107.438L299.997 108.754L300.005 108.752L300.013 108.751L299.783 107.438ZM301.596 106.828L302.356 107.923L302.362 107.919L301.596 106.828ZM301.346 103.75L302.174 102.705L302.174 102.705L301.346 103.75ZM296.674 103.75L295.901 102.664L295.901 102.664L296.674 103.75ZM295.502 105.562L295.455 106.895L296.569 106.935L296.805 105.844L295.502 105.562ZM288.455 105.312L287.135 105.124L286.925 106.592L288.408 106.645L288.455 105.312ZM290.064 101.406L289.001 100.602L289 100.603L290.064 101.406ZM293.658 98.6875L294.186 99.9117L294.19 99.91L293.658 98.6875ZM303.408 98.2344L303.046 99.5176L303.056 99.5202L303.408 98.2344ZM306.783 99.7969L306.006 100.88L306.014 100.886L306.783 99.7969ZM309.002 102.297L307.822 102.918L307.827 102.928L309.002 102.297ZM309.799 122V123.333H311.132V122H309.799ZM302.611 122H301.278V123.333H302.611V122ZM302.611 118.656H303.945V117.323H302.611V118.656ZM302.424 118.656V117.323H301.618L301.244 118.036L302.424 118.656ZM300.783 120.719L299.923 119.7L299.915 119.706L300.783 120.719ZM298.455 121.984L298.056 120.712L298.051 120.714L298.455 121.984ZM300.033 116.906L299.437 115.714L299.429 115.717L300.033 116.906ZM301.627 115.531L302.73 116.28L302.736 116.271L301.627 115.531ZM302.221 111.187H303.554V108.984L301.602 110.006L302.221 111.187ZM301.424 111.5L301.041 110.223L301.029 110.227L301.424 111.5ZM299.299 111.984L299.512 113.301L299.512 113.301L299.299 111.984ZM298.189 112.156L297.995 110.837L297.987 110.838L297.98 110.84L298.189 112.156ZM296.346 112.687L295.779 111.48L295.77 111.485L296.346 112.687ZM295.189 113.625L294.099 112.858L294.094 112.864L295.189 113.625ZM295.643 116.781L294.849 117.853L294.858 117.86L295.643 116.781ZM295.455 121.073C294.072 121.073 292.897 120.843 291.903 120.416L290.85 122.866C292.232 123.459 293.776 123.74 295.455 123.74V121.073ZM291.916 120.421C290.965 120 290.235 119.384 289.693 118.562L287.467 120.031C288.3 121.293 289.434 122.239 290.837 122.86L291.916 120.421ZM289.701 118.575C289.195 117.789 288.898 116.739 288.898 115.344H286.231C286.231 117.115 286.611 118.701 287.459 120.018L289.701 118.575ZM288.898 115.344C288.898 114.161 289.106 113.257 289.455 112.576L287.08 111.362C286.491 112.513 286.231 113.86 286.231 115.344H288.898ZM289.455 112.576C289.827 111.849 290.329 111.273 290.967 110.829L289.443 108.64C288.436 109.342 287.646 110.256 287.08 111.362L289.455 112.576ZM290.967 110.829C291.652 110.352 292.457 109.98 293.399 109.724L292.699 107.151C291.495 107.478 290.404 107.971 289.443 108.64L290.967 110.829ZM293.41 109.721C294.395 109.444 295.457 109.254 296.6 109.157L296.373 106.5C295.078 106.61 293.849 106.827 292.687 107.154L293.41 109.721ZM296.608 109.156C297.987 109.03 299.12 108.896 299.997 108.754L299.569 106.121C298.779 106.25 297.715 106.377 296.365 106.5L296.608 109.156ZM300.013 108.751C300.902 108.595 301.739 108.352 302.356 107.923L300.835 105.733C300.703 105.825 300.332 105.988 299.553 106.124L300.013 108.751ZM302.362 107.919C303.119 107.387 303.507 106.591 303.507 105.687H300.84C300.84 105.722 300.837 105.741 300.836 105.746C300.835 105.75 300.835 105.746 300.84 105.737C300.845 105.728 300.85 105.721 300.852 105.719C300.853 105.717 300.848 105.724 300.829 105.737L302.362 107.919ZM303.507 105.687V105.609H300.84V105.687H303.507ZM303.507 105.609C303.507 104.464 303.092 103.433 302.174 102.705L300.518 104.795C300.704 104.942 300.84 105.151 300.84 105.609H303.507ZM302.174 102.705C301.318 102.027 300.25 101.76 299.111 101.76V104.427C299.848 104.427 300.269 104.598 300.518 104.795L302.174 102.705ZM299.111 101.76C297.916 101.76 296.806 102.019 295.901 102.664L297.447 104.836C297.771 104.606 298.285 104.427 299.111 104.427V101.76ZM295.901 102.664C295.002 103.303 294.432 104.201 294.199 105.281L296.805 105.844C296.905 105.382 297.116 105.072 297.447 104.836L295.901 102.664ZM295.549 104.23L288.502 103.98L288.408 106.645L295.455 106.895L295.549 104.23ZM289.775 105.501C289.952 104.26 290.404 103.17 291.129 102.209L289 100.603C287.996 101.934 287.374 103.449 287.135 105.124L289.775 105.501ZM291.128 102.211C291.845 101.263 292.847 100.49 294.186 99.9117L293.13 97.4633C291.428 98.1976 290.034 99.2368 289.001 100.602L291.128 102.211ZM294.19 99.91C295.513 99.3341 297.161 99.0208 299.174 99.0208V96.3542C296.895 96.3542 294.866 96.7076 293.126 97.465L294.19 99.91ZM299.174 99.0208C300.6 99.0208 301.887 99.1905 303.046 99.5176L303.77 96.9512C302.346 96.549 300.811 96.3542 299.174 96.3542V99.0208ZM303.056 99.5202C304.215 99.8382 305.192 100.296 306.006 100.88L307.56 98.7135C306.457 97.9223 305.184 97.3389 303.761 96.9485L303.056 99.5202ZM306.014 100.886C306.809 101.448 307.404 102.124 307.822 102.918L310.182 101.676C309.558 100.491 308.674 99.5002 307.553 98.7079L306.014 100.886ZM307.827 102.928C308.241 103.699 308.465 104.607 308.465 105.687H311.132C311.132 104.226 310.825 102.874 310.177 101.666L307.827 102.928ZM308.465 105.687V122H311.132V105.687H308.465ZM309.799 120.667H302.611V123.333H309.799V120.667ZM303.945 122V118.656H301.278V122H303.945ZM302.611 117.323H302.424V119.99H302.611V117.323ZM301.244 118.036C300.892 118.704 300.452 119.254 299.923 119.7L301.643 121.738C302.448 121.059 303.101 120.233 303.604 119.277L301.244 118.036ZM299.915 119.706C299.408 120.142 298.794 120.48 298.056 120.712L298.854 123.256C299.907 122.926 300.846 122.421 301.651 121.731L299.915 119.706ZM298.051 120.714C297.32 120.946 296.459 121.073 295.455 121.073V123.74C296.68 123.74 297.82 123.585 298.859 123.255L298.051 120.714ZM297.814 118.74C298.822 118.74 299.773 118.534 300.637 118.095L299.429 115.717C298.981 115.945 298.453 116.073 297.814 116.073V118.74ZM300.629 118.099C301.488 117.669 302.199 117.063 302.73 116.28L300.524 114.783C300.263 115.166 299.911 115.476 299.437 115.714L300.629 118.099ZM302.736 116.271C303.292 115.437 303.554 114.487 303.554 113.469H300.887C300.887 114.013 300.754 114.438 300.518 114.792L302.736 116.271ZM303.554 113.469V111.187H300.887V113.469H303.554ZM301.602 110.006C301.478 110.071 301.296 110.146 301.041 110.223L301.807 112.777C302.177 112.666 302.526 112.533 302.839 112.369L301.602 110.006ZM301.029 110.227C300.764 110.309 300.464 110.389 300.127 110.466L300.721 113.065C301.113 112.976 301.479 112.879 301.819 112.773L301.029 110.227ZM300.127 110.466C299.791 110.543 299.444 110.61 299.085 110.668L299.512 113.301C299.925 113.234 300.327 113.155 300.721 113.065L300.127 110.466ZM299.085 110.668C298.706 110.73 298.343 110.786 297.995 110.837L298.383 113.475C298.745 113.422 299.121 113.364 299.512 113.301L299.085 110.668ZM297.98 110.84C297.171 110.968 296.43 111.175 295.779 111.481L296.912 113.894C297.282 113.721 297.77 113.573 298.399 113.473L297.98 110.84ZM295.77 111.485C295.1 111.806 294.522 112.255 294.099 112.858L296.28 114.392C296.398 114.224 296.591 114.048 296.922 113.89L295.77 111.485ZM294.094 112.864C293.658 113.493 293.465 114.216 293.465 114.969H296.132C296.132 114.68 296.2 114.507 296.285 114.386L294.094 112.864ZM293.465 114.969C293.465 116.119 293.899 117.149 294.849 117.853L296.436 115.71C296.261 115.58 296.132 115.401 296.132 114.969H293.465ZM294.858 117.86C295.708 118.478 296.725 118.74 297.814 118.74V116.073C297.154 116.073 296.723 115.918 296.427 115.703L294.858 117.86ZM322.111 90H323.445V88.6667H322.111V90ZM322.111 122V123.333H323.445V122H322.111ZM314.471 122H313.137V123.333H314.471V122ZM314.471 90V88.6667H313.137V90H314.471ZM320.778 90V122H323.445V90H320.778ZM322.111 120.667H314.471V123.333H322.111V120.667ZM315.804 122V90H313.137V122H315.804ZM314.471 91.3333H322.111V88.6667H314.471V91.3333ZM344.271 99.5937L342.944 99.7145L343.054 100.927H344.271V99.5937ZM342.881 96.9219L342.051 97.9656L342.059 97.9715L342.066 97.9772L342.881 96.9219ZM336.896 96.3437L336.411 95.1018L336.411 95.1018L336.896 96.3437ZM335.396 97.4219L336.466 98.2179L336.47 98.212L336.475 98.2061L335.396 97.4219ZM334.881 98.9688L336.213 99.0267L336.214 99.0096L336.214 98.9926L334.881 98.9688ZM335.162 100.234L334.004 100.896L334.011 100.908L334.019 100.92L335.162 100.234ZM336.1 101.203L335.341 102.299L335.357 102.31L335.373 102.321L336.1 101.203ZM337.6 101.922L338.048 100.666L338.048 100.666L337.6 101.922ZM339.568 102.469L339.864 101.169L339.856 101.167L339.848 101.165L339.568 102.469ZM342.318 103.094L342.023 104.394L342.035 104.397L342.318 103.094ZM346.506 104.469L345.935 105.674L345.939 105.675L346.506 104.469ZM349.568 106.516L348.644 107.477L348.65 107.482L349.568 106.516ZM351.459 109.25L350.227 109.76L350.227 109.76L351.459 109.25ZM352.115 112.719L353.449 112.726L353.449 112.717L353.449 112.708L352.115 112.719ZM350.584 117.922L349.491 117.159L349.491 117.159L350.584 117.922ZM346.225 121.25L345.722 120.015L345.72 120.016L346.225 121.25ZM332.396 121.203L332.895 119.967L332.895 119.967L332.396 121.203ZM327.756 117.547L326.651 118.293L327.756 117.547ZM326.053 111.344V110.01H324.703L324.72 111.36L326.053 111.344ZM333.459 111.344L334.79 111.263L334.714 110.01H333.459V111.344ZM334.287 113.922L333.201 114.695L333.201 114.695L334.287 113.922ZM336.303 115.484L335.792 116.716L335.797 116.718L336.303 115.484ZM341.959 115.594L341.485 114.347L341.479 114.35L341.959 115.594ZM343.662 114.422L342.617 113.594L342.617 113.594L343.662 114.422ZM344.271 112.703L345.605 112.725L345.605 112.702L345.605 112.68L344.271 112.703ZM343.709 111.156L342.685 112.01L342.69 112.016L342.695 112.022L343.709 111.156ZM342.021 110.031L341.494 111.256L341.504 111.26L341.515 111.265L342.021 110.031ZM339.146 109.141L338.843 110.439L338.845 110.439L339.146 109.141ZM335.803 108.359L336.106 107.061L336.101 107.06L335.803 108.359ZM329.256 105.281L328.366 106.275L328.37 106.278L329.256 105.281ZM326.881 99.5L328.214 99.5057L328.214 99.493L326.881 99.5ZM328.475 94.2969L327.393 93.5176L327.393 93.5176L328.475 94.2969ZM332.928 90.8125L333.464 92.0331L333.464 92.0331L332.928 90.8125ZM345.865 90.8281L345.305 92.0382L345.313 92.0419L345.865 90.8281ZM350.131 94.3438L351.239 93.6024L351.239 93.6024L350.131 94.3438ZM351.678 99.5937V100.927H353.025L353.011 99.5798L351.678 99.5937ZM345.599 99.473C345.466 98.0016 344.845 96.7541 343.696 95.8665L342.066 97.9772C342.562 98.3605 342.869 98.8942 342.944 99.7145L345.599 99.473ZM343.711 95.8781C342.576 94.9761 341.075 94.6198 339.396 94.6198V97.2865C340.738 97.2865 341.561 97.576 342.051 97.9656L343.711 95.8781ZM339.396 94.6198C338.292 94.6198 337.281 94.7622 336.411 95.1018L337.382 97.5857C337.845 97.4045 338.501 97.2865 339.396 97.2865V94.6198ZM336.411 95.1018C335.569 95.4307 334.836 95.9252 334.318 96.6376L336.475 98.2061C336.623 98.0019 336.89 97.7776 337.382 97.5857L336.411 95.1018ZM334.327 96.6259C333.819 97.3078 333.563 98.0963 333.548 98.9449L336.214 98.9926C336.22 98.6745 336.307 98.4318 336.466 98.2179L334.327 96.6259ZM333.549 98.9108C333.519 99.6048 333.654 100.283 334.004 100.896L336.32 99.5729C336.253 99.4566 336.201 99.291 336.213 99.0267L333.549 98.9108ZM334.019 100.92C334.35 101.472 334.804 101.928 335.341 102.299L336.859 100.107C336.583 99.9161 336.412 99.7262 336.305 99.5484L334.019 100.92ZM335.373 102.321C335.895 102.66 336.493 102.942 337.151 103.178L338.048 100.666C337.54 100.485 337.138 100.288 336.826 100.085L335.373 102.321ZM337.151 103.178C337.8 103.409 338.514 103.606 339.289 103.772L339.848 101.165C339.165 101.019 338.566 100.851 338.048 100.666L337.151 103.178ZM339.273 103.769L342.023 104.394L342.614 101.794L339.864 101.169L339.273 103.769ZM342.035 104.397C343.539 104.723 344.835 105.152 345.935 105.674L347.077 103.264C345.76 102.639 344.264 102.152 342.601 101.791L342.035 104.397ZM345.939 105.675C347.049 106.197 347.943 106.802 348.644 107.477L350.493 105.555C349.548 104.646 348.4 103.886 347.073 103.262L345.939 105.675ZM348.65 107.482C349.352 108.149 349.874 108.907 350.227 109.76L352.691 108.74C352.19 107.531 351.451 106.465 350.487 105.549L348.65 107.482ZM350.227 109.76C350.58 110.611 350.773 111.595 350.782 112.73L353.449 112.708C353.437 111.28 353.192 109.951 352.691 108.74L350.227 109.76ZM350.782 112.712C350.773 114.503 350.325 115.964 349.491 117.159L351.677 118.685C352.864 116.984 353.437 114.977 353.449 112.726L350.782 112.712ZM349.491 117.159C348.65 118.364 347.419 119.325 345.722 120.015L346.727 122.485C348.822 121.633 350.497 120.376 351.677 118.685L349.491 117.159ZM345.72 120.016C344.036 120.704 341.941 121.073 339.396 121.073V123.74C342.185 123.74 344.642 123.337 346.729 122.484L345.72 120.016ZM339.396 121.073C336.849 121.073 334.692 120.691 332.895 119.967L331.898 122.44C334.08 123.319 336.589 123.74 339.396 123.74V121.073ZM332.895 119.967C331.13 119.255 329.803 118.197 328.861 116.801L326.651 118.293C327.917 120.168 329.684 121.547 331.898 122.44L332.895 119.967ZM328.861 116.801C327.937 115.432 327.415 113.636 327.386 111.327L324.72 111.36C324.753 114.051 325.367 116.391 326.651 118.293L328.861 116.801ZM326.053 112.677H333.459V110.01H326.053V112.677ZM332.128 111.424C332.202 112.649 332.537 113.763 333.201 114.695L335.373 113.148C335.058 112.706 334.841 112.101 334.79 111.263L332.128 111.424ZM333.201 114.695C333.849 115.606 334.73 116.276 335.792 116.716L336.813 114.253C336.167 113.985 335.704 113.613 335.373 113.148L333.201 114.695ZM335.797 116.718C336.853 117.151 338.03 117.349 339.303 117.349V114.682C338.304 114.682 337.482 114.527 336.808 114.251L335.797 116.718ZM339.303 117.349C340.457 117.349 341.515 117.194 342.439 116.838L341.479 114.35C340.945 114.556 340.232 114.682 339.303 114.682V117.349ZM342.433 116.84C343.344 116.494 344.13 115.978 344.708 115.249L342.617 113.594C342.402 113.865 342.054 114.131 341.485 114.347L342.433 116.84ZM344.708 115.249C345.288 114.517 345.59 113.659 345.605 112.725L342.938 112.682C342.933 113.039 342.828 113.327 342.617 113.594L344.708 115.249ZM345.605 112.68C345.589 111.792 345.304 110.972 344.723 110.291L342.695 112.022C342.843 112.195 342.933 112.406 342.938 112.726L345.605 112.68ZM344.733 110.303C344.182 109.641 343.406 109.159 342.528 108.798L341.515 111.265C342.157 111.529 342.507 111.797 342.685 112.01L344.733 110.303ZM342.549 108.807C341.701 108.441 340.66 108.123 339.448 107.842L338.845 110.439C339.967 110.7 340.842 110.975 341.494 111.256L342.549 108.807ZM339.45 107.842L336.106 107.061L335.499 109.658L338.843 110.439L339.45 107.842ZM336.101 107.06C333.478 106.458 331.522 105.511 330.142 104.285L328.37 106.278C330.178 107.885 332.586 108.99 335.505 109.659L336.101 107.06ZM330.145 104.288C328.875 103.151 328.205 101.609 328.214 99.5057L325.548 99.4943C325.536 102.246 326.449 104.558 328.366 106.275L330.145 104.288ZM328.214 99.493C328.205 97.7726 328.662 96.3186 329.557 95.0761L327.393 93.5176C326.142 95.2543 325.536 97.2691 325.548 99.507L328.214 99.493ZM329.557 95.0761C330.473 93.8035 331.758 92.7832 333.464 92.0331L332.391 89.5919C330.306 90.5085 328.622 91.8111 327.393 93.5176L329.557 95.0761ZM333.464 92.0331C335.164 91.2858 337.138 90.8958 339.412 90.8958V88.2292C336.832 88.2292 334.483 88.6725 332.391 89.5919L333.464 92.0331ZM339.412 90.8958C341.742 90.8958 343.694 91.2923 345.305 92.0381L346.425 89.6181C344.391 88.6764 342.04 88.2292 339.412 88.2292V90.8958ZM345.313 92.0419C346.946 92.7841 348.165 93.8027 349.023 95.0851L351.239 93.6024C350.076 91.8639 348.451 90.5388 346.417 89.6143L345.313 92.0419ZM349.023 95.0851C349.875 96.3598 350.326 97.8517 350.344 99.6077L353.011 99.5798C352.988 97.3566 352.407 95.3486 351.239 93.6024L349.023 95.0851ZM351.678 98.2604H344.271V100.927H351.678V98.2604ZM369.568 98H370.902V96.6667H369.568V98ZM369.568 103.625V104.958H370.902V103.625H369.568ZM354.428 103.625H353.094V104.958H354.428V103.625ZM354.428 98V96.6667H353.094V98H354.428ZM357.6 92.25V90.9167H356.266V92.25H357.6ZM365.24 92.25H366.574V90.9167H365.24V92.25ZM365.459 115.594L364.266 116.19L364.279 116.216L364.293 116.241L365.459 115.594ZM366.131 116.203L365.606 117.429L365.624 117.437L365.643 117.444L366.131 116.203ZM368.1 116.297L368.312 117.613L368.329 117.61L368.345 117.607L368.1 116.297ZM368.85 116.141L370.155 115.867L369.87 114.511L368.526 114.847L368.85 116.141ZM370.006 121.656L370.372 122.938L371.565 122.597L371.311 121.383L370.006 121.656ZM368.459 122.047L368.155 120.749L368.15 120.75L368.459 122.047ZM366.1 122.344L366.039 121.012L366.038 121.012L366.1 122.344ZM361.49 121.719L360.993 122.956L361.006 122.961L361.49 121.719ZM358.568 119.344L357.436 120.047L357.441 120.055L358.568 119.344ZM357.6 115.297L358.933 115.314L358.933 115.305V115.297H357.6ZM368.235 98V103.625H370.902V98H368.235ZM369.568 102.292H354.428V104.958H369.568V102.292ZM355.761 103.625V98H353.094V103.625H355.761ZM354.428 99.3333H369.568V96.6667H354.428V99.3333ZM357.6 93.5833H365.24V90.9167H357.6V93.5833ZM363.907 92.25V114.453H366.574V92.25H363.907ZM363.907 114.453C363.907 115.045 363.997 115.65 364.266 116.19L366.652 114.997C366.63 114.954 366.574 114.799 366.574 114.453H363.907ZM364.293 116.241C364.591 116.777 365.038 117.186 365.606 117.429L366.656 114.978C366.647 114.974 366.642 114.971 366.641 114.97C366.639 114.969 366.639 114.969 366.64 114.969C366.64 114.97 366.64 114.969 366.638 114.967C366.636 114.964 366.631 114.958 366.625 114.946L364.293 116.241ZM365.643 117.444C366.129 117.635 366.652 117.708 367.178 117.708V115.042C366.891 115.042 366.716 115.001 366.618 114.962L365.643 117.444ZM367.178 117.708C367.548 117.708 367.927 117.675 368.312 117.613L367.887 114.981C367.626 115.023 367.39 115.042 367.178 115.042V117.708ZM368.345 117.607C368.685 117.544 368.967 117.486 369.173 117.434L368.526 114.847C368.399 114.879 368.181 114.925 367.854 114.986L368.345 117.607ZM367.545 116.414L368.701 121.93L371.311 121.383L370.155 115.867L367.545 116.414ZM369.64 120.374C369.306 120.47 368.814 120.594 368.155 120.749L368.763 123.345C369.437 123.187 369.977 123.051 370.372 122.938L369.64 120.374ZM368.15 120.75C367.599 120.881 366.9 120.973 366.039 121.012L366.16 123.676C367.133 123.631 368.007 123.525 368.768 123.344L368.15 120.75ZM366.038 121.012C364.378 121.089 363.038 120.891 361.975 120.477L361.006 122.961C362.505 123.546 364.238 123.765 366.162 123.676L366.038 121.012ZM361.987 120.481C360.955 120.067 360.211 119.449 359.696 118.632L357.441 120.055C358.28 121.385 359.484 122.35 360.993 122.956L361.987 120.481ZM359.701 118.64C359.202 117.837 358.914 116.757 358.933 115.314L356.266 115.28C356.243 117.087 356.601 118.704 357.436 120.047L359.701 118.64ZM358.933 115.297V92.25H356.266V115.297H358.933ZM377.912 120.906L377.245 122.061L377.253 122.065L377.912 120.906ZM373.74 116.562L372.557 117.177L372.561 117.185L373.74 116.562ZM373.74 103.594L372.56 102.974L372.558 102.976L373.74 103.594ZM377.912 99.25L378.574 100.407L378.576 100.406L377.912 99.25ZM390.896 99.25L390.229 100.404L390.237 100.409L390.896 99.25ZM395.068 103.594L393.885 104.208L393.889 104.216L395.068 103.594ZM395.068 116.562L393.888 115.943L393.887 115.945L395.068 116.562ZM390.896 120.906L391.559 122.063L391.561 122.062L390.896 120.906ZM386.787 115.844L385.903 114.845L385.903 114.845L386.787 115.844ZM388.24 113.5L386.979 113.067L386.975 113.078L388.24 113.5ZM388.24 106.531L386.975 106.953L386.979 106.965L388.24 106.531ZM386.787 104.187L387.671 103.189L387.671 103.189L386.787 104.187ZM382.053 104.187L381.185 103.175L381.177 103.182L382.053 104.187ZM380.568 106.531L379.307 106.098L379.303 106.11L380.568 106.531ZM380.568 113.5L379.303 113.922L379.307 113.933L380.568 113.5ZM382.053 115.844L381.177 116.849L381.185 116.856L382.053 115.844ZM384.412 121.12C382.074 121.12 380.145 120.643 378.571 119.747L377.253 122.065C379.304 123.232 381.708 123.786 384.412 123.786V121.12ZM378.579 119.752C376.996 118.837 375.782 117.574 374.919 115.94L372.561 117.185C373.657 119.259 375.224 120.892 377.245 122.061L378.579 119.752ZM374.923 115.948C374.069 114.303 373.62 112.359 373.62 110.078H370.954C370.954 112.714 371.474 115.093 372.557 117.177L374.923 115.948ZM373.62 110.078C373.62 107.786 374.069 105.843 374.922 104.211L372.558 102.976C371.474 105.053 370.954 107.433 370.954 110.078H373.62ZM374.921 104.214C375.784 102.57 376.996 101.31 378.574 100.407L377.25 98.0928C375.224 99.252 373.655 100.888 372.56 102.974L374.921 104.214ZM378.576 100.406C380.149 99.5023 382.076 99.0208 384.412 99.0208V96.3542C381.706 96.3542 379.3 96.9144 377.248 98.094L378.576 100.406ZM384.412 99.0208C386.748 99.0208 388.669 99.5024 390.229 100.404L391.564 98.0956C389.52 96.9143 387.118 96.3542 384.412 96.3542V99.0208ZM390.237 100.409C391.824 101.312 393.034 102.57 393.885 104.208L396.252 102.979C395.165 100.888 393.594 99.2505 391.556 98.0911L390.237 100.409ZM393.889 104.216C394.751 105.847 395.204 107.788 395.204 110.078H397.87C397.87 107.431 397.344 105.049 396.247 102.971L393.889 104.216ZM395.204 110.078C395.204 112.357 394.751 114.299 393.888 115.943L396.249 117.182C397.344 115.097 397.87 112.716 397.87 110.078H395.204ZM393.887 115.945C393.035 117.574 391.824 118.835 390.232 119.75L391.561 122.062C393.594 120.894 395.164 119.259 396.25 117.18L393.887 115.945ZM390.234 119.749C388.673 120.643 386.75 121.12 384.412 121.12V123.786C387.116 123.786 389.516 123.232 391.559 122.063L390.234 119.749ZM384.459 118.021C385.673 118.021 386.771 117.638 387.671 116.842L385.903 114.845C385.532 115.174 385.078 115.354 384.459 115.354V118.021ZM387.671 116.842C388.52 116.091 389.115 115.091 389.505 113.922L386.975 113.078C386.698 113.909 386.325 114.472 385.903 114.845L387.671 116.842ZM389.501 113.933C389.903 112.765 390.089 111.457 390.089 110.031H387.423C387.423 111.23 387.265 112.235 386.979 113.067L389.501 113.933ZM390.089 110.031C390.089 108.587 389.903 107.268 389.501 106.098L386.979 106.965C387.264 107.794 387.423 108.809 387.423 110.031H390.089ZM389.505 106.11C389.115 104.941 388.52 103.94 387.671 103.189L385.903 105.186C386.325 105.56 386.698 106.122 386.975 106.953L389.505 106.11ZM387.671 103.189C386.771 102.393 385.673 102.01 384.459 102.01V104.677C385.078 104.677 385.532 104.857 385.903 105.186L387.671 103.189ZM384.459 102.01C383.226 102.01 382.107 102.385 381.185 103.175L382.92 105.2C383.311 104.865 383.796 104.677 384.459 104.677V102.01ZM381.177 103.182C380.318 103.93 379.71 104.928 379.307 106.098L381.829 106.965C382.115 106.134 382.496 105.57 382.928 105.193L381.177 103.182ZM379.303 106.11C378.915 107.276 378.735 108.591 378.735 110.031H381.402C381.402 108.805 381.555 107.786 381.833 106.953L379.303 106.11ZM378.735 110.031C378.735 111.453 378.915 112.757 379.303 113.922L381.833 113.078C381.555 112.243 381.402 111.234 381.402 110.031H378.735ZM379.307 113.933C379.71 115.103 380.318 116.101 381.177 116.849L382.928 114.838C382.496 114.462 382.115 113.897 381.829 113.067L379.307 113.933ZM381.185 116.856C382.107 117.646 383.226 118.021 384.459 118.021V115.354C383.796 115.354 383.311 115.166 382.92 114.831L381.185 116.856ZM408.092 108.312L406.759 108.297L406.758 108.305V108.312H408.092ZM408.092 122V123.333H409.425V122H408.092ZM400.451 122H399.118V123.333H400.451V122ZM400.451 98V96.6667H399.118V98H400.451ZM407.717 98H409.05V96.6667H407.717V98ZM407.717 102.406H406.383V103.74H407.717V102.406ZM407.982 102.406V103.74H408.918L409.236 102.86L407.982 102.406ZM410.701 98.9531L411.428 100.071L411.434 100.067L410.701 98.9531ZM419.67 98.8281L418.973 99.9647L418.984 99.9714L419.67 98.8281ZM422.576 101.984L421.387 102.588L421.393 102.599L422.576 101.984ZM423.607 106.703L422.274 106.695V106.703H423.607ZM423.607 122V123.333H424.941V122H423.607ZM415.967 122H414.633V123.333H415.967V122ZM415.967 108.203L414.633 108.193V108.203H415.967ZM414.951 105.078L413.961 105.972L413.968 105.979L414.951 105.078ZM409.998 104.484L410.657 105.643L410.664 105.64L409.998 104.484ZM408.592 105.969L407.407 105.357L407.403 105.365L407.399 105.372L408.592 105.969ZM406.758 108.312V122H409.425V108.312H406.758ZM408.092 120.667H400.451V123.333H408.092V120.667ZM401.785 122V98H399.118V122H401.785ZM400.451 99.3333H407.717V96.6667H400.451V99.3333ZM406.383 98V102.406H409.05V98H406.383ZM407.717 103.74H407.982V101.073H407.717V103.74ZM409.236 102.86C409.671 101.657 410.396 100.742 411.428 100.071L409.974 97.8354C408.444 98.8306 407.356 100.218 406.729 101.953L409.236 102.86ZM411.434 100.067C412.466 99.3874 413.728 99.0208 415.279 99.0208V96.3542C413.289 96.3542 411.499 96.8313 409.968 97.8396L411.434 100.067ZM415.279 99.0208C416.761 99.0208 417.975 99.3524 418.973 99.9647L420.367 97.6916C418.886 96.783 417.173 96.3542 415.279 96.3542V99.0208ZM418.984 99.9714C420.01 100.587 420.808 101.448 421.387 102.588L423.765 101.381C422.969 99.8128 421.83 98.5694 420.356 97.6848L418.984 99.9714ZM421.393 102.599C421.974 103.717 422.284 105.069 422.274 106.695L424.941 106.711C424.952 104.733 424.574 102.939 423.759 101.37L421.393 102.599ZM422.274 106.703V122H424.941V106.703H422.274ZM423.607 120.667H415.967V123.333H423.607V120.667ZM417.3 122V108.203H414.633V122H417.3ZM417.3 108.214C417.312 106.651 416.913 105.245 415.934 104.177L413.968 105.979C414.364 106.411 414.642 107.089 414.634 108.193L417.3 108.214ZM415.941 104.185C414.962 103.1 413.628 102.62 412.123 102.62V105.286C413.035 105.286 413.587 105.556 413.961 105.972L415.941 104.185ZM412.123 102.62C411.118 102.62 410.175 102.844 409.332 103.329L410.664 105.64C411.051 105.417 411.524 105.286 412.123 105.286V102.62ZM409.339 103.325C408.5 103.803 407.853 104.493 407.407 105.357L409.777 106.58C409.997 106.153 410.288 105.853 410.657 105.643L409.339 103.325ZM407.399 105.372C406.965 106.241 406.771 107.232 406.759 108.297L409.425 108.328C409.434 107.56 409.573 106.988 409.784 106.565L407.399 105.372ZM433.057 120.969L432.413 122.136L432.421 122.141L433.057 120.969ZM428.869 116.703L427.687 117.321L427.692 117.329L428.869 116.703ZM428.885 103.594L430.064 104.216L430.065 104.214L428.885 103.594ZM433.025 99.25L433.693 100.404L433.698 100.401L433.025 99.25ZM444.01 98.4844L444.478 97.2359L444.478 97.2359L444.01 98.4844ZM450.088 104.703L448.839 105.17L448.84 105.173L450.088 104.703ZM450.947 111.844V113.177H452.281V111.844H450.947ZM430.088 111.844H428.755V113.177H430.088V111.844ZM430.088 107.406V106.073H428.755V107.406H430.088ZM443.838 107.406V108.74H445.188L445.171 107.389L443.838 107.406ZM441.713 103.75L441.057 104.911L441.068 104.917L441.08 104.923L441.713 103.75ZM437.182 103.781L437.828 104.948L437.834 104.944L437.841 104.94L437.182 103.781ZM435.572 105.328L436.709 106.025L436.714 106.017L435.572 105.328ZM434.947 107.531L433.614 107.498L433.614 107.514V107.531H434.947ZM435.525 114.625L434.343 115.241L434.347 115.248L435.525 114.625ZM437.166 116.328L436.503 117.485L436.503 117.485L437.166 116.328ZM441.541 116.656L441.97 117.919L441.97 117.919L441.541 116.656ZM442.963 115.828L443.866 116.809L443.866 116.809L442.963 115.828ZM443.854 114.484L443.892 113.152L442.937 113.124L442.604 114.019L443.854 114.484ZM450.869 114.687L452.18 114.931L452.464 113.4L450.908 113.355L450.869 114.687ZM448.947 118.797L447.93 117.934L447.93 117.935L448.947 118.797ZM445.088 121.5L445.582 122.739L445.589 122.736L445.088 121.5ZM439.557 121.12C437.222 121.12 435.283 120.66 433.693 119.797L432.421 122.141C434.476 123.256 436.87 123.786 439.557 123.786V121.12ZM433.701 119.801C432.117 118.928 430.906 117.695 430.047 116.078L427.692 117.329C428.791 119.399 430.371 121.01 432.413 122.136L433.701 119.801ZM430.051 116.086C429.201 114.46 428.749 112.478 428.749 110.094H426.083C426.083 112.814 426.599 115.238 427.687 117.321L430.051 116.086ZM428.749 110.094C428.749 107.792 429.203 105.847 430.064 104.216L427.706 102.971C426.608 105.049 426.083 107.437 426.083 110.094H428.749ZM430.065 104.214C430.93 102.566 432.135 101.306 433.693 100.404L432.357 98.0961C430.353 99.2565 428.798 100.892 427.704 102.974L430.065 104.214ZM433.698 100.401C435.243 99.4978 437.101 99.0208 439.322 99.0208V96.3542C436.71 96.3542 434.37 96.9189 432.352 98.099L433.698 100.401ZM439.322 99.0208C440.891 99.0208 442.293 99.2645 443.542 99.7328L444.478 97.2359C442.894 96.6418 441.17 96.3542 439.322 96.3542V99.0208ZM443.542 99.7328C444.784 100.199 445.843 100.881 446.734 101.782L448.629 99.9057C447.458 98.7227 446.069 97.8326 444.478 97.2359L443.542 99.7328ZM446.734 101.782C447.618 102.675 448.325 103.795 448.839 105.17L451.337 104.236C450.705 102.549 449.808 101.096 448.629 99.9057L446.734 101.782ZM448.84 105.173C449.346 106.516 449.614 108.096 449.614 109.937H452.281C452.281 107.841 451.976 105.932 451.336 104.233L448.84 105.173ZM449.614 109.937V111.844H452.281V109.937H449.614ZM450.947 110.51H430.088V113.177H450.947V110.51ZM431.421 111.844V107.406H428.755V111.844H431.421ZM430.088 108.74H443.838V106.073H430.088V108.74ZM445.171 107.389C445.158 106.368 444.913 105.412 444.408 104.557L442.111 105.912C442.357 106.327 442.497 106.819 442.505 107.423L445.171 107.389ZM444.408 104.557C443.908 103.71 443.214 103.045 442.346 102.577L441.08 104.923C441.525 105.164 441.861 105.488 442.111 105.912L444.408 104.557ZM442.368 102.589C441.496 102.097 440.52 101.87 439.479 101.87V104.536C440.125 104.536 440.638 104.674 441.057 104.911L442.368 102.589ZM439.479 101.87C438.416 101.87 437.419 102.112 436.522 102.622L437.841 104.94C438.298 104.68 438.833 104.536 439.479 104.536V101.87ZM436.536 102.615C435.656 103.102 434.948 103.781 434.431 104.639L436.714 106.017C436.988 105.563 437.353 105.211 437.828 104.948L436.536 102.615ZM434.435 104.631C433.907 105.494 433.641 106.461 433.614 107.498L436.28 107.565C436.296 106.956 436.446 106.454 436.709 106.025L434.435 104.631ZM433.614 107.531V112.047H436.281V107.531H433.614ZM433.614 112.047C433.614 113.203 433.842 114.281 434.343 115.241L436.708 114.009C436.437 113.49 436.281 112.849 436.281 112.047H433.614ZM434.347 115.248C434.849 116.198 435.573 116.952 436.503 117.485L437.829 115.172C437.342 114.892 436.973 114.51 436.704 114.002L434.347 115.248ZM436.503 117.485C437.45 118.028 438.532 118.271 439.697 118.271V115.604C438.904 115.604 438.299 115.441 437.829 115.172L436.503 117.485ZM439.697 118.271C440.497 118.271 441.259 118.16 441.97 117.919L441.112 115.394C440.718 115.527 440.252 115.604 439.697 115.604V118.271ZM441.97 117.919C442.683 117.677 443.322 117.31 443.866 116.809L442.06 114.847C441.812 115.076 441.503 115.261 441.112 115.394L441.97 117.919ZM443.866 116.809C444.425 116.295 444.836 115.667 445.103 114.95L442.604 114.019C442.475 114.364 442.293 114.633 442.06 114.847L443.866 116.809ZM443.815 115.817L450.831 116.02L450.908 113.355L443.892 113.152L443.815 115.817ZM449.558 114.444C449.307 115.8 448.763 116.953 447.93 117.934L449.964 119.659C451.111 118.307 451.848 116.721 452.18 114.931L449.558 114.444ZM447.93 117.935C447.108 118.906 446.008 119.688 444.587 120.264L445.589 122.736C447.355 122.02 448.828 121.001 449.965 119.659L447.93 117.935ZM444.594 120.261C443.188 120.822 441.517 121.12 439.557 121.12V123.786C441.783 123.786 443.8 123.449 445.582 122.739L444.594 120.261Z" fill="white" fill-opacity="0.1" mask="url(#path-12-outside-1_1_21)"/>
</g>
<g filter="url(#filter2_f_1_21)">
<mask id="mask0_1_21" style="mask-type:alpha" maskUnits="userSpaceOnUse" x="9" y="194" width="192" height="159">
<path d="M51.6667 347.697L9 297.616L51.6667 282.074L76.5556 340.79L51.6667 347.697Z" fill="url(#paint8_linear_1_21)" fill-opacity="0.17"/>
<path d="M76.5556 340.79L51.6667 282.074H158.333L133.444 340.79H76.5556Z" fill="url(#paint9_linear_1_21)" fill-opacity="0.17"/>
<path d="M51.6667 282.074L105 194L158.333 282.074H51.6667Z" fill="url(#paint10_linear_1_21)" fill-opacity="0.17"/>
<path d="M9 297.616L105 194L51.6667 282.074L9 297.616Z" fill="url(#paint11_linear_1_21)" fill-opacity="0.17"/>
<path d="M105 194L201 297.616L158.333 282.074L105 194Z" fill="url(#paint12_linear_1_21)" fill-opacity="0.17"/>
<path d="M201 297.616L158.333 347.697L133.444 340.79L158.333 282.074L201 297.616Z" fill="url(#paint13_linear_1_21)" fill-opacity="0.17"/>
<path d="M51.6667 347.697L76.5556 340.79H133.444L158.333 347.697L105 353L51.6667 347.697Z" fill="url(#paint14_linear_1_21)" fill-opacity="0.17"/>
</mask>
<g mask="url(#mask0_1_21)">
<path d="M51.6667 347.697L9 297.616L51.6667 282.074L76.5556 340.79L51.6667 347.697Z" fill="#2F82FF"/>
<path d="M76.5556 340.79L51.6667 282.074H158.333L133.444 340.79H76.5556Z" fill="#2F82FF"/>
<path d="M51.6667 282.074L105 194L158.333 282.074H51.6667Z" fill="#2F82FF"/>
<path d="M9 297.616L105 194L51.6667 282.074L9 297.616Z" fill="#2F82FF"/>
<path d="M105 194L201 297.616L158.333 282.074L105 194Z" fill="#2F82FF"/>
<path d="M201 297.616L158.333 347.697L133.444 340.79L158.333 282.074L201 297.616Z" fill="#2F82FF"/>
<path d="M51.6667 347.697L76.5556 340.79H133.444L158.333 347.697L105 353L51.6667 347.697Z" fill="#2F82FF"/>
<path d="M51.6667 347.697L9 297.616L51.6667 282.074L76.5556 340.79L51.6667 347.697Z" fill="url(#paint15_linear_1_21)" style="mix-blend-mode:soft-light"/>
<path d="M76.5556 340.79L51.6667 282.074H158.333L133.444 340.79H76.5556Z" fill="url(#paint16_linear_1_21)" style="mix-blend-mode:plus-lighter"/>
<path d="M51.6667 282.074L105 194L158.333 282.074H51.6667Z" fill="url(#paint17_linear_1_21)" style="mix-blend-mode:overlay"/>
<path d="M9 297.616L105 194L51.6667 282.074L9 297.616Z" fill="url(#paint18_linear_1_21)" style="mix-blend-mode:soft-light"/>
<path d="M105 194L201 297.616L158.333 282.074L105 194Z" fill="url(#paint19_linear_1_21)" style="mix-blend-mode:overlay"/>
<path d="M201 297.616L158.333 347.697L133.444 340.79L158.333 282.074L201 297.616Z" fill="url(#paint20_linear_1_21)" style="mix-blend-mode:soft-light"/>
<path d="M51.6667 347.697L76.5556 340.79H133.444L158.333 347.697L105 353L51.6667 347.697Z" fill="url(#paint21_linear_1_21)" style="mix-blend-mode:soft-light"/>
</g>
</g>
</g>
<defs>
<filter id="filter0_f_1_21" x="-72" y="-48" width="362" height="362" filterUnits="userSpaceOnUse" color-interpolation-filters="sRGB">
<feFlood flood-opacity="0" result="BackgroundImageFix"/>
<feBlend mode="normal" in="SourceGraphic" in2="BackgroundImageFix" result="shape"/>
<feGaussianBlur stdDeviation="50" result="effect1_foregroundBlur_1_21"/>
</filter>
<filter id="filter1_f_1_21" x="-21" y="-18" width="260" height="260" filterUnits="userSpaceOnUse" color-interpolation-filters="sRGB">
<feFlood flood-opacity="0" result="BackgroundImageFix"/>
<feBlend mode="normal" in="SourceGraphic" in2="BackgroundImageFix" result="shape"/>
<feGaussianBlur stdDeviation="35" result="effect1_foregroundBlur_1_21"/>
</filter>
<filter id="filter2_f_1_21" x="-1.3" y="183.7" width="212.6" height="179.6" filterUnits="userSpaceOnUse" color-interpolation-filters="sRGB">
<feFlood flood-opacity="0" result="BackgroundImageFix"/>
<feBlend mode="normal" in="SourceGraphic" in2="BackgroundImageFix" result="shape"/>
<feGaussianBlur stdDeviation="5.15" result="effect1_foregroundBlur_1_21"/>
</filter>
<linearGradient id="paint0_linear_1_21" x1="83.15" y1="71.1765" x2="65.5544" y2="115.735" gradientUnits="userSpaceOnUse">
<stop stop-color="#494949"/>
<stop offset="1" stop-color="#E9E9E9"/>
</linearGradient>
<linearGradient id="paint1_linear_1_21" x1="105.5" y1="69.8261" x2="105.5" y2="115.478" gradientUnits="userSpaceOnUse">
<stop stop-color="white" stop-opacity="0.8"/>
<stop offset="1" stop-color="white" stop-opacity="0"/>
</linearGradient>
<linearGradient id="paint2_linear_1_21" x1="105.5" y1="115.478" x2="105.5" y2="182" gradientUnits="userSpaceOnUse">
<stop stop-color="#4C4C4C"/>
<stop offset="1" stop-color="#B8B8B8"/>
</linearGradient>
<linearGradient id="paint3_linear_1_21" x1="64.1111" y1="115.478" x2="102.144" y2="183.866" gradientUnits="userSpaceOnUse">
<stop stop-color="#565656"/>
<stop offset="1" stop-color="#FAFAFA"/>
</linearGradient>
<linearGradient id="paint4_linear_1_21" x1="148.239" y1="116" x2="108.98" y2="184.009" gradientUnits="userSpaceOnUse">
<stop stop-color="#323232"/>
<stop offset="1" stop-color="#9A9A9A"/>
</linearGradient>
<linearGradient id="paint5_linear_1_21" x1="126.194" y1="68.5217" x2="144.987" y2="116.227" gradientUnits="userSpaceOnUse">
<stop stop-color="#494949"/>
<stop offset="1" stop-color="#999999"/>
</linearGradient>
<linearGradient id="paint6_linear_1_21" x1="105.5" y1="63.3953" x2="105.5" y2="71.1304" gradientUnits="userSpaceOnUse">
<stop stop-color="#7C7C7C"/>
<stop offset="1" stop-color="white"/>
</linearGradient>
<linearGradient id="paint7_linear_1_21" x1="329" y1="108.31" x2="329" y2="147" gradientUnits="userSpaceOnUse">
<stop stop-color="white"/>
<stop offset="1" stop-color="white" stop-opacity="0"/>
</linearGradient>
<linearGradient id="paint8_linear_1_21" x1="105" y1="251.988" x2="105" y2="194" gradientUnits="userSpaceOnUse">
<stop stop-color="white" stop-opacity="0"/>
<stop offset="1" stop-color="white"/>
</linearGradient>
<linearGradient id="paint9_linear_1_21" x1="105" y1="251.988" x2="105" y2="194" gradientUnits="userSpaceOnUse">
<stop stop-color="white" stop-opacity="0"/>
<stop offset="1" stop-color="white"/>
</linearGradient>
<linearGradient id="paint10_linear_1_21" x1="105" y1="251.988" x2="105" y2="194" gradientUnits="userSpaceOnUse">
<stop stop-color="white" stop-opacity="0"/>
<stop offset="1" stop-color="white"/>
</linearGradient>
<linearGradient id="paint11_linear_1_21" x1="105" y1="251.988" x2="105" y2="194" gradientUnits="userSpaceOnUse">
<stop stop-color="white" stop-opacity="0"/>
<stop offset="1" stop-color="white"/>
</linearGradient>
<linearGradient id="paint12_linear_1_21" x1="105" y1="251.988" x2="105" y2="194" gradientUnits="userSpaceOnUse">
<stop stop-color="white" stop-opacity="0"/>
<stop offset="1" stop-color="white"/>
</linearGradient>
<linearGradient id="paint13_linear_1_21" x1="105" y1="251.988" x2="105" y2="194" gradientUnits="userSpaceOnUse">
<stop stop-color="white" stop-opacity="0"/>
<stop offset="1" stop-color="white"/>
</linearGradient>
<linearGradient id="paint14_linear_1_21" x1="105" y1="251.988" x2="105" y2="194" gradientUnits="userSpaceOnUse">
<stop stop-color="white" stop-opacity="0"/>
<stop offset="1" stop-color="white"/>
</linearGradient>
<linearGradient id="paint15_linear_1_21" x1="76.2" y1="340.841" x2="52.411" y2="282.254" gradientUnits="userSpaceOnUse">
<stop stop-color="#494949"/>
<stop offset="1" stop-color="#E9E9E9"/>
</linearGradient>
<linearGradient id="paint16_linear_1_21" x1="105" y1="342.63" x2="105" y2="282.141" gradientUnits="userSpaceOnUse">
<stop stop-color="white" stop-opacity="0.8"/>
<stop offset="1" stop-color="white" stop-opacity="0"/>
</linearGradient>
<linearGradient id="paint17_linear_1_21" x1="105" y1="282.141" x2="105" y2="194" gradientUnits="userSpaceOnUse">
<stop stop-color="#4C4C4C"/>
<stop offset="1" stop-color="#B8B8B8"/>
</linearGradient>
<linearGradient id="paint18_linear_1_21" x1="51.6667" y1="282.141" x2="102.792" y2="192.738" gradientUnits="userSpaceOnUse">
<stop stop-color="#565656"/>
<stop offset="1" stop-color="#FAFAFA"/>
</linearGradient>
<linearGradient id="paint19_linear_1_21" x1="160.074" y1="281.45" x2="107.34" y2="192.611" gradientUnits="userSpaceOnUse">
<stop stop-color="#323232"/>
<stop offset="1" stop-color="#9A9A9A"/>
</linearGradient>
<linearGradient id="paint20_linear_1_21" x1="131.667" y1="344.359" x2="157.075" y2="281.632" gradientUnits="userSpaceOnUse">
<stop stop-color="#494949"/>
<stop offset="1" stop-color="#999999"/>
</linearGradient>
<linearGradient id="paint21_linear_1_21" x1="105" y1="351.151" x2="105" y2="340.902" gradientUnits="userSpaceOnUse">
<stop stop-color="#7C7C7C"/>
<stop offset="1" stop-color="white"/>
</linearGradient>
<clipPath id="clip0_1_21">
<rect width="559" height="243" rx="64" fill="white"/>
</clipPath>
</defs>
</svg>
